HIERARCHY
ROOT Hips
{
	OFFSET 0.000000 88.474243 0.000000
	CHANNELS 6 Xposition Yposition Zposition Zrotation Yrotation Xrotation 
	JOINT Hips_Spine
	{
		OFFSET 0.000000 0.000000 0.000000
		CHANNELS 3 Zrotation Yrotation Xrotation
		JOINT Spine
		{
			OFFSET 0.005100 8.711998 -0.691000
			CHANNELS 3 Zrotation Yrotation Xrotation
			JOINT Spine1
			{
				OFFSET -0.009200 8.660301 -1.275000
				CHANNELS 3 Zrotation Yrotation Xrotation
				JOINT Spine2
				{
					OFFSET 0.006300 9.852501 -1.857000
					CHANNELS 3 Zrotation Yrotation Xrotation
					JOINT Spine2_Neck
					{
						OFFSET 0.000000 0.000000 0.000000
						CHANNELS 3 Zrotation Yrotation Xrotation
						JOINT Neck
						{
							OFFSET 0.016300 11.420799 -0.263300
							CHANNELS 3 Zrotation Yrotation Xrotation
							End Site #name: Head
							{
								OFFSET -0.019200 9.262405 2.362500
							}
						}
					}
					JOINT Spine2_LeftShoulder
					{
						OFFSET 0.000000 0.000000 0.000000
						CHANNELS 3 Zrotation Yrotation Xrotation
						JOINT LeftShoulder
						{
							OFFSET 5.616900 6.732201 -0.345700
							CHANNELS 3 Zrotation Yrotation Xrotation
							JOINT LeftArm
							{
								OFFSET 10.664888 -0.183372 -2.440700
								CHANNELS 3 Zrotation Yrotation Xrotation
								JOINT LeftForeArm
								{
									OFFSET 27.459126 0.000000 0.000000
									CHANNELS 3 Zrotation Yrotation Xrotation
									End Site #name: LeftHand
									{
										OFFSET 21.306858 0.000000 0.000000
									}
								}
							}
						}
					}
					JOINT Spine2_RightShoulder
					{
						OFFSET 0.000000 0.000000 0.000000
						CHANNELS 3 Zrotation Yrotation Xrotation
						JOINT RightShoulder
						{
							OFFSET -5.580300 6.737503 -0.344400
							CHANNELS 3 Zrotation Yrotation Xrotation
							JOINT RightArm
							{
								OFFSET -10.679335 -0.188484 -2.383900
								CHANNELS 3 Zrotation Yrotation Xrotation
								JOINT RightForeArm
								{
									OFFSET -27.503529 0.000000 0.000000
									CHANNELS 3 Zrotation Yrotation Xrotation
									End Site #name: RightHand
									{
										OFFSET -21.306808 0.000000 0.000000
									}
								}
							}
						}
					}
				}
			}
		}
	}
	JOINT Hips_LeftUpLeg
	{
		OFFSET 0.000000 0.000000 0.000000
		CHANNELS 3 Zrotation Yrotation Xrotation
		JOINT LeftUpLeg
		{
			OFFSET 6.857700 -6.739601 0.312100
			CHANNELS 3 Zrotation Yrotation Xrotation
			JOINT LeftLeg
			{
				OFFSET -0.367590 -34.731552 -4.572400
				CHANNELS 3 Zrotation Yrotation Xrotation
				End Site #name: LeftFoot
				{
					OFFSET 0.367590 -34.656704 -6.067400
				}
			}
		}
	}
	JOINT Hips_RightUpLeg
	{
		OFFSET 0.000000 0.000000 0.000000
		CHANNELS 3 Zrotation Yrotation Xrotation
		JOINT RightUpLeg
		{
			OFFSET -6.876100 -6.733299 0.301000
			CHANNELS 3 Zrotation Yrotation Xrotation
			JOINT RightLeg
			{
				OFFSET 0.347353 -34.795158 -4.515900
				CHANNELS 3 Zrotation Yrotation Xrotation
				End Site #name: RightFoot
				{
					OFFSET -0.347353 -34.589367 -6.070300
				}
			}
		}
	}
}
MOTION
Frames: 10
Frame Time: 0.041667
0.057431 0.007865 0.012672 -0.972460 -3.891341 -2.009404 0.000000 0.000000 0.000000 0.858848 1.281332 8.291598 -0.804354 0.891150 0.360912 0.000000 0.000000 0.000000 -0.397502 0.001894 -1.922793 1.158762 -1.757255 4.643410 -1.630268 -0.191583 0.042548 -4.940576 -5.968952 1.525865 -64.273786 3.523758 43.409024 0.174740 -24.409081 -0.290039 -0.570824 0.592024 0.413919 11.071893 -2.279089 1.913573 61.390592 24.122946 18.134051 178.960524 63.194395 179.781472 0.000000 0.000000 0.000000 -0.282918 8.253374 -16.513114 4.005572 5.567570 19.570007 0.000000 0.000000 0.000000 -1.881167 -10.007292 -11.221474 -1.656007 -2.985772 17.198265 
0.083204 0.053521 -0.043537 -1.079573 -3.603943 -1.793673 0.000000 0.000000 0.000000 -0.388906 0.452589 4.180664 -0.876326 0.529490 1.112137 0.000000 0.000000 0.000000 -0.670124 -0.227425 0.158310 2.961495 -1.413355 5.469236 -0.586463 -0.250165 1.018451 -3.744013 2.142337 0.240375 -61.156686 6.042870 48.377113 0.145510 -20.260133 0.308772 -1.228090 -0.070950 0.928356 9.921353 -1.258675 0.799538 58.785005 32.002610 4.170430 179.252867 50.471354 179.828667 0.000000 0.000000 -0.000000 0.390016 10.025267 -15.746926 3.243916 5.700132 18.053005 0.000000 0.000000 0.000000 -2.006526 -10.238425 -11.608040 -1.782201 -3.056732 16.961781 
0.189730 0.049214 -0.105665 -1.358200 -3.518669 -1.596707 0.000000 0.000000 0.000000 -0.466722 0.305145 3.561187 -0.728171 0.275490 1.712154 0.000000 0.000000 0.000000 -0.850149 -0.284397 0.558761 2.821788 -1.235741 4.815575 -0.864475 0.028852 2.184867 -5.941753 4.360702 -0.147217 -61.853475 3.138527 42.899250 0.061129 -14.516719 0.120381 -1.176545 -0.030638 1.478657 10.230643 -1.859145 0.408690 53.732610 27.390633 0.813792 179.428835 52.386679 -179.945208 0.000000 0.000000 -0.000000 0.851704 11.178544 -16.124123 3.366846 5.837652 18.218133 -0.000000 0.000000 0.000000 -1.847437 -10.085412 -11.764766 -1.408809 -2.917336 16.709811 
0.322003 0.038137 -0.172886 -1.625987 -3.462244 -1.409549 0.000000 0.000000 0.000000 -0.695675 0.573308 3.909290 -0.812677 0.155691 2.402318 0.000000 0.000000 0.000000 -0.944118 -0.262575 1.207943 1.871216 -1.633470 5.984990 -1.049593 -0.083806 2.436979 -5.502107 5.390587 -0.465626 -64.663102 0.322461 39.884853 0.048973 -11.120786 0.163289 -1.186295 -0.058875 1.976629 9.495793 -2.376294 0.372424 50.240831 30.768955 -3.123108 179.356422 47.827291 -179.852024 -0.000000 0.000000 -0.000000 1.086769 11.726744 -16.458588 3.598614 5.927569 18.394463 -0.000000 0.000000 0.000000 -1.705314 -9.990562 -11.911112 -0.921404 -2.387693 16.742103 
0.478843 0.031036 -0.237225 -1.841166 -3.495432 -1.288669 0.000000 0.000000 0.000000 -0.888522 0.815380 4.298427 -1.036899 0.110941 2.555074 0.000000 0.000000 0.000000 -1.206947 -0.277311 1.347278 1.543075 -2.040095 7.210214 -1.216932 -0.254799 2.478632 -4.929669 5.712707 -0.511329 -66.473753 -1.617611 38.407460 0.049185 -9.409965 0.158383 -1.411992 -0.098212 2.232955 9.430406 -3.131511 0.319574 48.965309 34.449402 -5.087066 179.415778 44.125894 -179.764262 -0.000000 0.000000 -0.000000 1.217996 11.988628 -16.711839 3.692065 5.834923 18.689154 -0.000000 0.000000 0.000000 -1.641599 -9.795077 -11.991423 -0.553967 -2.130051 16.772168 
0.642328 0.026434 -0.297933 -1.988347 -3.574114 -1.211732 0.000000 -0.000000 0.000000 -1.033138 0.872353 4.509436 -1.238504 0.117698 2.594911 0.000000 0.000000 0.000000 -1.406628 -0.304109 1.403134 1.731882 -2.348336 8.069428 -1.339098 -0.370584 2.563822 -4.524513 5.560875 -0.467952 -67.822166 -2.699300 37.573628 0.080389 -8.512464 0.140335 -1.608573 -0.145039 2.282392 9.139486 -3.128287 0.337786 48.618197 36.440411 -6.150924 179.389598 42.596642 -179.724698 -0.000000 0.000000 -0.000000 1.293371 12.127738 -16.885006 3.689520 5.651602 18.987434 -0.000000 0.000000 0.000000 -1.592582 -9.615562 -11.985676 -0.331431 -1.978357 16.648367 
0.798018 0.022670 -0.356378 -2.092377 -3.643152 -1.141265 0.000000 -0.000000 0.000000 -1.027311 0.851936 4.677393 -1.335222 0.124071 2.609025 0.000000 0.000000 0.000000 -1.521497 -0.302475 1.415282 2.195489 -2.579638 8.585771 -1.432793 -0.364826 2.590305 -4.152532 5.690125 -0.476248 -68.558365 -3.169219 36.525575 0.097495 -8.583749 0.164742 -1.714792 -0.129809 2.248535 8.746375 -2.948980 0.361540 48.635684 37.049739 -6.264083 179.375766 41.951271 -179.724555 -0.000000 0.000000 -0.000000 1.324584 12.187890 -17.019200 3.646249 5.431361 19.177004 -0.000000 0.000000 0.000000 -1.544887 -9.562267 -12.014665 -0.194928 -1.794497 16.561087 
0.931956 0.018590 -0.411226 -2.184681 -3.684023 -1.063081 0.000000 -0.000000 0.000000 -0.998630 0.877266 4.766264 -1.380801 0.164294 2.596479 0.000000 0.000000 0.000000 -1.594704 -0.259383 1.406696 2.523572 -2.813060 8.910312 -1.487551 -0.296724 2.587671 -3.930426 5.908183 -0.509704 -68.767781 -3.243158 35.798041 0.103014 -9.207408 0.178584 -1.787070 -0.067672 2.203592 8.233939 -2.815966 0.380350 48.588880 36.752804 -6.169529 179.383985 42.119367 -179.722734 -0.000000 0.000000 -0.000000 1.341175 12.219665 -17.139058 3.604141 5.202603 19.257914 -0.000000 0.000000 0.000000 -1.477095 -9.566651 -12.110564 -0.142669 -1.644530 16.579972 
1.030085 0.013645 -0.460329 -2.280449 -3.715162 -0.986687 0.000000 -0.000000 0.000000 -0.988935 0.900079 4.810406 -1.404947 0.204836 2.585533 0.000000 0.000000 0.000000 -1.651179 -0.208600 1.397880 2.798873 -2.955970 9.100148 -1.531399 -0.219830 2.576654 -3.796828 6.191234 -0.552662 -68.722304 -2.962949 35.347110 0.100495 -9.791586 0.183500 -1.842530 -0.012762 2.164969 7.700202 -2.750830 0.388058 48.077935 36.238068 -6.367746 179.382510 42.542566 -179.728593 -0.000000 0.000000 -0.000000 1.365115 12.230128 -17.254218 3.572132 4.988015 19.300953 -0.000000 0.000000 0.000000 -1.392562 -9.584218 -12.232452 -0.099910 -1.533235 16.662242 
1.095965 0.008172 -0.503674 -2.366919 -3.735181 -0.924795 0.000000 -0.000000 0.000000 -1.015256 0.920645 4.864849 -1.430635 0.230235 2.573053 0.000000 0.000000 0.000000 -1.701280 -0.176174 1.373047 2.966922 -3.015048 9.182378 -1.571906 -0.167620 2.549617 -3.722620 6.438532 -0.598548 -68.572673 -2.561311 35.220296 0.097082 -10.228622 0.189454 -1.895897 0.028243 2.130612 7.222869 -2.732712 0.388358 47.220965 35.876671 -6.867306 179.373871 42.816336 -179.739692 0.000000 0.000000 -0.000000 1.403289 12.232939 -17.338982 3.544257 4.801541 19.308733 -0.000000 0.000000 0.000000 -1.307513 -9.590571 -12.346516 -0.072934 -1.480920 16.770789 
